<svg width="256" height="256" xmlns="http://www.w3.org/2000/svg">

 <g>
  <title>background</title>
  <rect fill="none" id="canvas_background" height="402" width="582" y="-1" x="-1"/>
 </g>
 <g>
  <title>Layer 1</title>
  <circle fill="#f9f9f9" r="128" id="Эллипс_5" cy="128" cx="128" class="cls-1"/>
  <path fill-rule="evenodd" fill="#ffffff" id="Фигура_1_копия" d="m188.1,153.447c-4.67,12.309 -32.28,20.379 -32.28,20.379l5.38,22.428l-14.21,3.4l-5.41,-22.585l-11.24,2.563l5.44,22.708l-14.21,3.4l-5.48,-22.865l-28.48,6.493l-1.13,-17.911s5.18,-0.648 9.9,-1.581s4.82,-6.292 4.19,-8.909s-12.85,-53.641 -14.15,-59.061s-6.97,-6.829 -9.44,-6.434s-10.29,3.255 -10.29,3.255l-3.58,-14.952l27.66,-6.626l-5.55,-23.176l14.2,-3.4l5.55,23.176c4.06,-0.972 7.9,-1.89 11.22,-2.686l-5.55,-23.176l14.2,-3.4l5.59,23.311c6.37,-1.033 18.66,-2.112 26.25,0.684c9.1,3.353 15.14,14.553 15.8,23.091s-8.38,17.817 -8.38,17.817s14.2,0.988 20.24,8.591c12.28,15.445 5.85,29.935 3.76,35.466zm-78.62,-64.174l6.81,28.41s12.27,-1.557 19.83,-6.33s10.78,-9.509 9.66,-15.754c-1.19,-6.631 -8.99,-10.52 -16.68,-10.234a73.025,73.025 0 0 0 -19.62,3.908zm9.46,42.794l7.35,30.652s19.47,-3.676 25.8,-7.763s13.55,-11.94 9.34,-20.419s-15.95,-8.035 -23.8,-6.947a145.286,145.286 0 0 0 -18.69,4.477z" class="cls-2"/>
 </g>
</svg>